<svg width="146" height="150" viewBox="0 0 146 150" fill="none" xmlns="http://www.w3.org/2000/svg">
    <path opacity="0.9" d="M71.5156 0.462585C91.8597 0.46259 110.22 8.95741 123.242 22.5934L99.0127 46.8229C92.1988 39.3788 82.4028 34.7097 71.5156 34.7097C50.9327 34.7097 34.2471 51.3953 34.2471 71.9782C34.2471 92.5611 50.9327 109.247 71.5156 109.247C81.2111 109.247 90.0405 105.543 96.6699 99.4753L120.899 123.705C108.062 135.964 90.6682 143.494 71.5156 143.494C57.8607 143.494 45.1003 139.666 34.2471 133.026V149.538H0V70.9714H0.0078125C0.546665 31.9387 32.3549 0.462585 71.5156 0.462585Z" fill="url(#paint0_linear_99_512)"/>
    <path d="M114.696 46.2265C118.383 49.9131 121.308 54.2898 123.303 59.1067L123.666 60.0144C125.422 64.5694 126.325 69.4126 126.325 74.3002L126.313 75.2761C126.193 80.1571 125.173 84.9771 123.302 89.4931L122.918 90.3911C120.939 94.8542 118.153 98.9164 114.696 102.373L108.286 95.9624C110.953 93.2954 113.103 90.1606 114.63 86.7165L114.927 86.0244C116.371 82.5397 117.157 78.8199 117.25 75.0535L117.26 74.2995C117.259 70.5278 116.563 66.7908 115.207 63.2758L114.927 62.5761C113.388 58.8591 111.131 55.4815 108.286 52.6367L114.696 46.2265Z" fill="#9A74DF"/>
    <path d="M100.036 60.8898C101.797 62.6509 103.194 64.7417 104.147 67.0427L104.32 67.476C105.159 69.6519 105.591 71.9652 105.591 74.3L105.584 74.7667C105.527 77.0981 105.04 79.4003 104.147 81.5574L103.963 81.9858C103.018 84.118 101.687 86.0591 100.036 87.7102L93.6259 81.3C94.4303 80.4956 95.0893 79.5593 95.5748 78.5331L95.7716 78.0887C96.2069 77.0378 96.4579 75.9206 96.5138 74.7869L96.5249 74.3C96.5249 73.1626 96.3291 72.0349 95.9469 70.9662L95.7716 70.5114C95.2741 69.3104 94.545 68.2192 93.6259 67.3L100.036 60.8898Z" fill="#9A74DF"/>
    <path d="M128.609 32.3159C134.123 37.8293 138.496 44.3748 141.48 51.5784L141.756 52.2552C144.559 59.2646 146 66.7465 146 74.2999L145.995 75.031C145.902 82.5794 144.371 90.0436 141.48 97.0221L141.196 97.6954C138.222 104.634 133.95 110.943 128.609 116.284L122.199 109.874C126.725 105.348 130.344 100.002 132.864 94.1231L133.104 93.5527C135.554 87.6398 136.852 81.3155 136.931 74.9197L136.934 74.2999C136.934 67.8999 135.713 61.5607 133.338 55.6217L133.104 55.0471C130.576 48.9435 126.871 43.3976 122.199 38.7261L128.609 32.3159Z" fill="#9A74DF"/>
    <path opacity="0.9" d="M34.301 73.9927C35.3475 93.6389 51.6086 109.247 71.5156 109.247C83.9521 109.247 94.9635 103.154 101.734 93.7917V136.815C92.5543 141.1 82.3145 143.494 71.5156 143.494C57.8599 143.494 45.1004 139.663 34.2469 133.022V73.9927H34.301Z" fill="url(#paint1_linear_99_512)"/>
    <defs>
        <linearGradient id="paint0_linear_99_512" x1="-5.53995" y1="84.0725" x2="143.031" y2="84.0725" gradientUnits="userSpaceOnUse">
            <stop stop-color="#4EEFF2"/>
            <stop offset="0.176842" stop-color="#55AEF9"/>
            <stop offset="0.501322" stop-color="#758CFF"/>
            <stop offset="1" stop-color="#D77AF3"/>
        </linearGradient>
        <linearGradient id="paint1_linear_99_512" x1="27.7459" y1="100.951" x2="88.6391" y2="100.951" gradientUnits="userSpaceOnUse">
            <stop stop-color="#1C1E49"/>
            <stop offset="1" stop-color="#2F327C" stop-opacity="0"/>
        </linearGradient>
    </defs>
</svg>
